PathFileType	4	(X/Y/Z)	D:\Long Term Storage\D'Arcy Smith\Coord8.trc
DataRate	CameraRate	NumFrames	NumMarkers	Units	OrigDataRate	OrigDataStartFrame	OrigNumFrames
120.00	120.00	      76	4	mm	120.00	1	      5136
Frame#	Time	M1			M2			M3			M4			
		X1	Y1	Z1	X2	Y2	Z2	X3	Y3	Z3	X4	Y4	Z4	

1	0.000	1067.03931	320.16071	568.60199	1614.54053	329.21152	520.16400							
2	0.008	1065.36145	321.33951	570.97974	1612.48889	328.78238	507.76883							
3	0.017	1064.32092	322.47806	572.24756	1610.47803	328.72668	494.78806							
4	0.025	1063.72461	323.56802	572.70313	1607.97998	329.28778	481.39932							
5	0.033	1061.96924	324.42413	575.40167	1604.31030	330.20276	467.44067							
6	0.042	1060.95923	324.72040	573.11877	1600.64746	331.64651	453.56549							
7	0.050	1060.05835	324.59521	570.97571	1597.36511	333.75800	439.45090							
8	0.058	1060.91333	325.91055	564.13397	1595.38428	336.61230	425.22351							
9	0.067	1060.73071	326.04449	559.25854	1593.11584	339.93774	410.03696							
10	0.075	1060.47449	326.47913	552.24738	1591.19702	343.96210	395.00385							
11	0.083	1060.55859	326.71127	545.12476	1587.70996	348.45517	380.78781							
12	0.092	1061.22437	326.81485	536.22070	1585.75769	353.58569	365.98428							
13	0.100	1062.29333	326.87460	524.57233	1584.65393	359.44165	351.14603							
14	0.108	1063.84558	327.45062	510.87646	1579.70715	365.18567	337.34219							
15	0.117	1065.17102	329.08948	497.25406	1577.58276	371.56982	323.19055							
16	0.125	1067.82861	330.23895	483.56238	1577.15381	379.30179	309.39902							
17	0.133	1070.30457	331.64212	466.83615	1574.59143	386.60059	296.60663							
18	0.142	1073.46045	334.04974	449.27710	1570.26831	393.16425	285.03452							
19	0.150	1076.39233	336.96729	432.38489	1568.10449	400.79022	273.98047							
20	0.158	1080.40710	340.86469	412.39111	1567.37634	408.76123	263.67798							
21	0.167	1083.52600	346.45673	389.47995	1562.52588	414.73056	255.07816							
22	0.175	1087.81335	351.83286	369.32242	1560.41821	421.11209	247.33894							
23	0.183	1092.16309	358.61847	350.00659	1559.94141	427.71326	240.49780							
24	0.192	1096.76941	366.05170	331.87521	1558.58179	432.85837	234.99565							
25	0.200	1100.49719	374.61575	312.39627	1557.71277	437.12546	230.59830							
26	0.208	1103.89258	383.01981	294.73172	1556.35828	440.50568	227.71259							
27	0.217	1107.19458	392.43283	277.07901	1556.52490	442.71918	225.78900							
28	0.225	1110.56543	402.24664	260.95309	1557.68665	444.25375	224.80437							
29	0.233	1113.57104	412.07611	244.52475	1558.52502	444.44669	225.09435							
30	0.242	1115.87744	421.54245	231.64861	1559.95483	443.52966	226.33867							
31	0.250	1117.49121	430.32953	220.92633	1561.43420	441.79633	229.07474							
32	0.258	1118.49658	437.43176	213.03766	1562.90247	438.20084	232.03816							
33	0.267	1118.61011	442.96555	207.43611	1566.25378	434.60800	236.41824							
34	0.275	1117.95972	446.67038	204.12669	1570.40540	430.01108	241.75905							
35	0.283	1116.59070	448.69266	203.02927	1573.26074	424.08334	247.94160							
36	0.292	1114.18970	448.66660	204.07912	1574.85938	417.04123	255.35913							
37	0.300	1112.02783	446.82480	207.26115	1580.91125	410.75067	264.18338							
38	0.308	1109.23621	444.25327	211.11069	1584.69910	402.78229	274.23975							
39	0.317	1105.86133	439.83301	216.56680	1588.22937	393.97403	285.56622							
40	0.325	1102.53894	434.62256	222.97453	1592.08508	385.23026	298.16183							
41	0.333	1099.35962	428.77722	230.04585	1594.96704	376.08224	311.98038							
42	0.342	1095.86804	422.48392	236.99818	1600.63062	368.16425	327.58148							
43	0.350	1093.04944	415.57626	244.76205	1604.76379	360.09732	344.09650							
44	0.358	1090.98242	408.43048	251.95923	1609.06140	352.73892	361.61914							
45	0.367	1088.28857	400.52841	262.54425	1612.85132	346.22183	379.98663							
46	0.375	1087.11609	392.61169	271.77780	1616.15381	338.33441	398.21222							
47	0.383	1085.48889	384.95071	278.93304	1620.90723	336.03891	418.36609							
48	0.392	1084.62244	376.89520	287.24765	1624.03723	332.67294	437.70667							
49	0.400	1084.25354	368.48895	297.29529	1626.89099	330.31802	456.25781							
50	0.408	1083.13843	360.44620	305.31088	1628.70007	328.92166	474.67090							
51	0.417	1082.45557	352.11139	315.32678	1631.45447	328.62341	491.47675							
52	0.425	1082.01685	343.88617	326.70386	1633.01794	328.94391	507.74863							
53	0.433	1080.88318	336.17346	338.00052	1634.61633	329.51886	522.83356							
54	0.442	1079.79285	328.82321	349.63962	1636.20972	331.45581	536.73645							
55	0.450	1078.60388	322.11694	361.88055	1637.51355	333.47913	549.58435							
56	0.458	1076.44226	316.26227	375.51776	1638.32898	335.55521	561.18951							
57	0.467	1074.46936	311.35461	392.26300	1638.92896	337.91772	571.36786							
58	0.475	1071.91492	307.52344	404.06033	1638.95020	340.09528	580.06384							
59	0.483	1070.12390	303.47665	422.40314	1638.84143	342.03888	587.55194							
60	0.492	1067.73071	301.38571	437.63412	1638.28015	343.73657	593.44659							
61	0.500	1064.94507	300.21271	451.66434	1637.47546	345.20935	598.06903							
62	0.508	1062.80383	299.36676	468.02039	1636.47339	346.16333	601.38159							
63	0.517	1059.99487	299.54736	483.09814	1635.13403	346.67496	603.29852							
64	0.525	1057.65674	300.02777	497.71039	1633.56262	346.74286	603.99817							
65	0.533	1056.20581	302.10046	509.30930	1631.79626	346.39392	603.59552							
66	0.542	1053.15479	303.81345	522.74994	1629.85071	345.66644	602.16669							
67	0.550	1051.19653	306.04620	533.45044	1627.98047	344.67239	599.72205							
68	0.558	1048.93201	308.62521	543.01337	1625.82495	343.50226	596.32794							
69	0.567	1047.82031	311.01987	552.89587	1623.85596	342.35245	592.05096							
70	0.575	1044.98938	312.67838	561.81458	1621.68909	341.07721	586.69312							
71	0.583	1044.80896	314.84164	564.74060	1619.26636	339.63379	580.23438							
72	0.592	1043.95593	316.41379	567.54926	1616.69324	338.08527	572.47998							
73	0.600	1043.41724	317.86917	568.42078	1614.19141	336.48465	563.36243							
74	0.608	1043.30432	318.72873	567.17096	1611.43848	334.76385	552.61096							
75	0.617	1043.48096	319.11264	563.82379	1608.12976	333.25385	540.25159							
76	0.625	1043.04187	319.08948	560.27374	1604.51367	331.96844	526.01575							
